# xmcd
#
# Track frame offsets: 
#        150
#        11085
#        19915
#        45610
#        64350
#        84102
#        103635
#        115102
#        127195
#        138157
#        150312
#        161635
#        170512
#        192387
#        201307
#        217225
#        230565
#
# Disc length: 3191 seconds
#
# Revision: 1
# Processed by: cddbd v1.5.2PL0 Copyright (c) Steve Scherf et al.
# Submitted via: ExactAudioCopy v0.99pb4
#
DISCID=ef0c7511
DTITLE=Monjes Beneditinos - Mosteiro da Ressurreição - Salmos III
DYEAR=2001
DGENRE=Religioso
TTITLE0=Salmo 66 - Todas as nações proclamam o Senhor
TTITLE1=Salmo 99 - Alegria dos homens que entram no templo
TTITLE2=Salmo 113 - Israel é libertado do Egito
TTITLE3=Salmo 118 (I e II) - Meditação sobre a palavra de Deus na lei
TTITLE4=Salmo 118 (III e IV) - Meditação sobre a palavra de Deus na le
TTITLE4=i
TTITLE5=Salmo 118 (V e VI) - Meditação sobre a palavra de Deus na lei
TTITLE6=Salmo 121 - A cidade santa de Jerusalem
TTITLE7=Salmo 124 - O Senhor é o guarda do seu povo
TTITLE8=Salmo 125 - Alegria e esperança de Deus
TTITLE9=Salmo 127 - A paz no lar do Senhor
TTITLE10=Salmo 129 - Súplica de perdão
TTITLE11=Salmo 130 - Confiar no Senhor como crianças
TTITLE12=Salmo 131 - Promessas divinas à casa de Davi
TTITLE13=Salmo 132 - Alegria de viver como irmãos
TTITLE14=Salmo 137 - Ação de graças
TTITLE15=Salmo 141 - Vós sois o meu refúgio
TTITLE16=Salmo 150 - O aleluia perene
EXTD=YEAR: 2001
EXTT0=
EXTT1=
EXTT2=
EXTT3=
EXTT4=
EXTT5=
EXTT6=
EXTT7=
EXTT8=
EXTT9=
EXTT10=
EXTT11=
EXTT12=
EXTT13=
EXTT14=
EXTT15=
EXTT16=
PLAYORDER=
